<mxfile host="app.diagrams.net" modified="2023-05-16T19:59:51.476Z" agent="Mozilla/5.0 (X11; Linux x86_64; rv:109.0) Gecko/20100101 Firefox/111.0" etag="gsLYRl_UwjPkVg8mDEZD" version="21.1.7" type="device">
  <diagram name="Page-1" id="5U4r9MKp_BtlRCCHkdOg">
    <mxGraphModel dx="1674" dy="712" grid="1" gridSize="10" guides="1" tooltips="1" connect="1" arrows="1" fold="1" page="1" pageScale="1" pageWidth="850" pageHeight="1100" math="0" shadow="0">
      <root>
        <mxCell id="0" />
        <mxCell id="1" parent="0" />
        <mxCell id="R07nR9zVBasFDxz1jcbP-1" value="Program" style="swimlane;fontStyle=1;align=center;verticalAlign=top;childLayout=stackLayout;horizontal=1;startSize=26;horizontalStack=0;resizeParent=1;resizeParentMax=0;resizeLast=0;collapsible=1;marginBottom=0;whiteSpace=wrap;html=1;" parent="1" vertex="1">
          <mxGeometry x="20" y="20" width="220" height="220" as="geometry" />
        </mxCell>
        <mxCell id="R07nR9zVBasFDxz1jcbP-2" value="&lt;div&gt;- login: &amp;amp;LoginModule&lt;/div&gt;&lt;div&gt;- safes: &amp;amp;SafesModule&lt;/div&gt;&lt;div&gt;- generator: &amp;amp;GeneratorModule&lt;/div&gt;" style="text;strokeColor=none;fillColor=none;align=left;verticalAlign=top;spacingLeft=4;spacingRight=4;overflow=hidden;rotatable=0;points=[[0,0.5],[1,0.5]];portConstraint=eastwest;whiteSpace=wrap;html=1;" parent="R07nR9zVBasFDxz1jcbP-1" vertex="1">
          <mxGeometry y="26" width="220" height="84" as="geometry" />
        </mxCell>
        <mxCell id="R07nR9zVBasFDxz1jcbP-3" value="" style="line;strokeWidth=1;fillColor=none;align=left;verticalAlign=middle;spacingTop=-1;spacingLeft=3;spacingRight=3;rotatable=0;labelPosition=right;points=[];portConstraint=eastwest;strokeColor=inherit;" parent="R07nR9zVBasFDxz1jcbP-1" vertex="1">
          <mxGeometry y="110" width="220" height="8" as="geometry" />
        </mxCell>
        <mxCell id="R07nR9zVBasFDxz1jcbP-4" value="&lt;div&gt;+ getSafeList(void): string&lt;br&gt;&lt;/div&gt;&lt;div&gt;+ readPassword(string): string&lt;br&gt;&lt;/div&gt;&lt;div&gt;+ editSafe(string, vector&amp;lt;string&amp;gt;): void&lt;br&gt;&lt;/div&gt;&lt;div&gt;+ sync(void): bool&lt;/div&gt;&lt;div&gt;+ login(string): bool&lt;br&gt;&lt;/div&gt;&lt;div&gt;+ newSafe(vector&amp;lt;string&amp;gt;): bool&lt;br&gt;&lt;/div&gt;" style="text;strokeColor=none;fillColor=none;align=left;verticalAlign=top;spacingLeft=4;spacingRight=4;overflow=hidden;rotatable=0;points=[[0,0.5],[1,0.5]];portConstraint=eastwest;whiteSpace=wrap;html=1;" parent="R07nR9zVBasFDxz1jcbP-1" vertex="1">
          <mxGeometry y="118" width="220" height="102" as="geometry" />
        </mxCell>
        <mxCell id="R07nR9zVBasFDxz1jcbP-5" value="GeneratorModule" style="swimlane;fontStyle=1;align=center;verticalAlign=top;childLayout=stackLayout;horizontal=1;startSize=26;horizontalStack=0;resizeParent=1;resizeParentMax=0;resizeLast=0;collapsible=1;marginBottom=0;whiteSpace=wrap;html=1;" parent="1" vertex="1">
          <mxGeometry x="380" y="20" width="220" height="86" as="geometry" />
        </mxCell>
        <mxCell id="R07nR9zVBasFDxz1jcbP-6" value="- safes: &amp;amp;SafesModule" style="text;strokeColor=none;fillColor=none;align=left;verticalAlign=top;spacingLeft=4;spacingRight=4;overflow=hidden;rotatable=0;points=[[0,0.5],[1,0.5]];portConstraint=eastwest;whiteSpace=wrap;html=1;" parent="R07nR9zVBasFDxz1jcbP-5" vertex="1">
          <mxGeometry y="26" width="220" height="26" as="geometry" />
        </mxCell>
        <mxCell id="R07nR9zVBasFDxz1jcbP-7" value="" style="line;strokeWidth=1;fillColor=none;align=left;verticalAlign=middle;spacingTop=-1;spacingLeft=3;spacingRight=3;rotatable=0;labelPosition=right;points=[];portConstraint=eastwest;strokeColor=inherit;" parent="R07nR9zVBasFDxz1jcbP-5" vertex="1">
          <mxGeometry y="52" width="220" height="8" as="geometry" />
        </mxCell>
        <mxCell id="R07nR9zVBasFDxz1jcbP-8" value="+ generate(vector&amp;lt;string&amp;gt;): string" style="text;strokeColor=none;fillColor=none;align=left;verticalAlign=top;spacingLeft=4;spacingRight=4;overflow=hidden;rotatable=0;points=[[0,0.5],[1,0.5]];portConstraint=eastwest;whiteSpace=wrap;html=1;" parent="R07nR9zVBasFDxz1jcbP-5" vertex="1">
          <mxGeometry y="60" width="220" height="26" as="geometry" />
        </mxCell>
        <mxCell id="R07nR9zVBasFDxz1jcbP-9" value="SafesModule" style="swimlane;fontStyle=1;align=center;verticalAlign=top;childLayout=stackLayout;horizontal=1;startSize=26;horizontalStack=0;resizeParent=1;resizeParentMax=0;resizeLast=0;collapsible=1;marginBottom=0;whiteSpace=wrap;html=1;" parent="1" vertex="1">
          <mxGeometry x="380" y="158" width="220" height="180" as="geometry" />
        </mxCell>
        <mxCell id="R07nR9zVBasFDxz1jcbP-10" value="&lt;div&gt;- cipher: &amp;amp;CipherModule&lt;/div&gt;&lt;div&gt;- openedSafe: Safe&lt;br&gt;&lt;/div&gt;" style="text;strokeColor=none;fillColor=none;align=left;verticalAlign=top;spacingLeft=4;spacingRight=4;overflow=hidden;rotatable=0;points=[[0,0.5],[1,0.5]];portConstraint=eastwest;whiteSpace=wrap;html=1;" parent="R07nR9zVBasFDxz1jcbP-9" vertex="1">
          <mxGeometry y="26" width="220" height="44" as="geometry" />
        </mxCell>
        <mxCell id="R07nR9zVBasFDxz1jcbP-11" value="" style="line;strokeWidth=1;fillColor=none;align=left;verticalAlign=middle;spacingTop=-1;spacingLeft=3;spacingRight=3;rotatable=0;labelPosition=right;points=[];portConstraint=eastwest;strokeColor=inherit;" parent="R07nR9zVBasFDxz1jcbP-9" vertex="1">
          <mxGeometry y="70" width="220" height="8" as="geometry" />
        </mxCell>
        <mxCell id="R07nR9zVBasFDxz1jcbP-12" value="&lt;div&gt;+ openSafe(string): bool&lt;/div&gt;&lt;div&gt;+ getSafe(): const &amp;amp;Safe&lt;br&gt;&lt;/div&gt;&lt;div&gt;+ closeSafe(void): void&lt;/div&gt;&lt;div&gt;+ changePswd(string, string): bool&lt;br&gt;&lt;/div&gt;&lt;div&gt;+ changeName(string, string): bool&lt;br&gt;&lt;/div&gt;&lt;div&gt;+ sync(void): bool&lt;br&gt;&lt;/div&gt;" style="text;strokeColor=none;fillColor=none;align=left;verticalAlign=top;spacingLeft=4;spacingRight=4;overflow=hidden;rotatable=0;points=[[0,0.5],[1,0.5]];portConstraint=eastwest;whiteSpace=wrap;html=1;" parent="R07nR9zVBasFDxz1jcbP-9" vertex="1">
          <mxGeometry y="78" width="220" height="102" as="geometry" />
        </mxCell>
        <mxCell id="R07nR9zVBasFDxz1jcbP-13" value="LoginModule" style="swimlane;fontStyle=1;align=center;verticalAlign=top;childLayout=stackLayout;horizontal=1;startSize=26;horizontalStack=0;resizeParent=1;resizeParentMax=0;resizeLast=0;collapsible=1;marginBottom=0;whiteSpace=wrap;html=1;" parent="1" vertex="1">
          <mxGeometry x="20" y="300" width="220" height="130" as="geometry" />
        </mxCell>
        <mxCell id="R07nR9zVBasFDxz1jcbP-14" value="- cipher: &amp;amp;CipherModule" style="text;strokeColor=none;fillColor=none;align=left;verticalAlign=top;spacingLeft=4;spacingRight=4;overflow=hidden;rotatable=0;points=[[0,0.5],[1,0.5]];portConstraint=eastwest;whiteSpace=wrap;html=1;" parent="R07nR9zVBasFDxz1jcbP-13" vertex="1">
          <mxGeometry y="26" width="220" height="26" as="geometry" />
        </mxCell>
        <mxCell id="R07nR9zVBasFDxz1jcbP-15" value="" style="line;strokeWidth=1;fillColor=none;align=left;verticalAlign=middle;spacingTop=-1;spacingLeft=3;spacingRight=3;rotatable=0;labelPosition=right;points=[];portConstraint=eastwest;strokeColor=inherit;" parent="R07nR9zVBasFDxz1jcbP-13" vertex="1">
          <mxGeometry y="52" width="220" height="8" as="geometry" />
        </mxCell>
        <mxCell id="R07nR9zVBasFDxz1jcbP-16" value="&lt;div&gt;+ login(string): bool&lt;/div&gt;&lt;div&gt;+ changePswd(string, string): bool&lt;br&gt;&lt;/div&gt;&lt;div&gt;+ sync(void): bool&lt;br&gt;&lt;/div&gt;" style="text;strokeColor=none;fillColor=none;align=left;verticalAlign=top;spacingLeft=4;spacingRight=4;overflow=hidden;rotatable=0;points=[[0,0.5],[1,0.5]];portConstraint=eastwest;whiteSpace=wrap;html=1;" parent="R07nR9zVBasFDxz1jcbP-13" vertex="1">
          <mxGeometry y="60" width="220" height="70" as="geometry" />
        </mxCell>
        <mxCell id="R07nR9zVBasFDxz1jcbP-17" value="Use" style="endArrow=open;endSize=12;dashed=1;html=1;rounded=0;entryX=0.5;entryY=0;entryDx=0;entryDy=0;exitX=0.5;exitY=1;exitDx=0;exitDy=0;" parent="1" source="R07nR9zVBasFDxz1jcbP-1" target="R07nR9zVBasFDxz1jcbP-13" edge="1">
          <mxGeometry width="160" relative="1" as="geometry">
            <mxPoint x="120" y="250" as="sourcePoint" />
            <mxPoint x="90" y="250" as="targetPoint" />
          </mxGeometry>
        </mxCell>
        <mxCell id="R07nR9zVBasFDxz1jcbP-18" value="Use" style="endArrow=open;endSize=12;dashed=1;html=1;rounded=0;entryX=0;entryY=0.25;entryDx=0;entryDy=0;exitX=1.011;exitY=-0.048;exitDx=0;exitDy=0;exitPerimeter=0;" parent="1" source="R07nR9zVBasFDxz1jcbP-2" target="R07nR9zVBasFDxz1jcbP-5" edge="1">
          <mxGeometry width="160" relative="1" as="geometry">
            <mxPoint x="220" y="80" as="sourcePoint" />
            <mxPoint x="500" y="240" as="targetPoint" />
          </mxGeometry>
        </mxCell>
        <mxCell id="R07nR9zVBasFDxz1jcbP-19" value="Use" style="endArrow=open;endSize=12;dashed=1;html=1;rounded=0;exitX=1.006;exitY=0.634;exitDx=0;exitDy=0;exitPerimeter=0;entryX=0;entryY=0.25;entryDx=0;entryDy=0;" parent="1" source="R07nR9zVBasFDxz1jcbP-4" target="R07nR9zVBasFDxz1jcbP-9" edge="1">
          <mxGeometry width="160" relative="1" as="geometry">
            <mxPoint x="340" y="240" as="sourcePoint" />
            <mxPoint x="500" y="240" as="targetPoint" />
          </mxGeometry>
        </mxCell>
        <mxCell id="R07nR9zVBasFDxz1jcbP-20" value="Use" style="endArrow=open;endSize=12;dashed=1;html=1;rounded=0;exitX=0.5;exitY=1;exitDx=0;exitDy=0;entryX=0.5;entryY=0;entryDx=0;entryDy=0;" parent="1" source="R07nR9zVBasFDxz1jcbP-5" target="R07nR9zVBasFDxz1jcbP-9" edge="1">
          <mxGeometry width="160" relative="1" as="geometry">
            <mxPoint x="510" y="120" as="sourcePoint" />
            <mxPoint x="510" y="150" as="targetPoint" />
          </mxGeometry>
        </mxCell>
        <mxCell id="R07nR9zVBasFDxz1jcbP-21" value="CipherModule" style="swimlane;fontStyle=1;align=center;verticalAlign=top;childLayout=stackLayout;horizontal=1;startSize=26;horizontalStack=0;resizeParent=1;resizeParentMax=0;resizeLast=0;collapsible=1;marginBottom=0;whiteSpace=wrap;html=1;" parent="1" vertex="1">
          <mxGeometry x="380" y="445" width="220" height="160" as="geometry" />
        </mxCell>
        <mxCell id="R07nR9zVBasFDxz1jcbP-22" value="- accountKey: AES256_CBC" style="text;strokeColor=none;fillColor=none;align=left;verticalAlign=top;spacingLeft=4;spacingRight=4;overflow=hidden;rotatable=0;points=[[0,0.5],[1,0.5]];portConstraint=eastwest;whiteSpace=wrap;html=1;" parent="R07nR9zVBasFDxz1jcbP-21" vertex="1">
          <mxGeometry y="26" width="220" height="26" as="geometry" />
        </mxCell>
        <mxCell id="R07nR9zVBasFDxz1jcbP-23" value="" style="line;strokeWidth=1;fillColor=none;align=left;verticalAlign=middle;spacingTop=-1;spacingLeft=3;spacingRight=3;rotatable=0;labelPosition=right;points=[];portConstraint=eastwest;strokeColor=inherit;" parent="R07nR9zVBasFDxz1jcbP-21" vertex="1">
          <mxGeometry y="52" width="220" height="8" as="geometry" />
        </mxCell>
        <mxCell id="R07nR9zVBasFDxz1jcbP-24" value="&lt;div&gt;+ encrypt&amp;lt;T&amp;gt;(T): T&lt;br&gt;&lt;/div&gt;&lt;div&gt;+ decrypt&amp;lt;T&amp;gt;(T): T&lt;br&gt;&lt;/div&gt;&lt;div&gt;+ login(string): bool&lt;br&gt;&lt;/div&gt;" style="text;strokeColor=none;fillColor=none;align=left;verticalAlign=top;spacingLeft=4;spacingRight=4;overflow=hidden;rotatable=0;points=[[0,0.5],[1,0.5]];portConstraint=eastwest;whiteSpace=wrap;html=1;" parent="R07nR9zVBasFDxz1jcbP-21" vertex="1">
          <mxGeometry y="60" width="220" height="100" as="geometry" />
        </mxCell>
        <mxCell id="R07nR9zVBasFDxz1jcbP-25" value="Use" style="endArrow=open;endSize=12;dashed=1;html=1;rounded=0;entryX=0;entryY=0;entryDx=0;entryDy=0;exitX=1;exitY=0.25;exitDx=0;exitDy=0;" parent="1" source="R07nR9zVBasFDxz1jcbP-13" target="R07nR9zVBasFDxz1jcbP-21" edge="1">
          <mxGeometry width="160" relative="1" as="geometry">
            <mxPoint x="270" y="340" as="sourcePoint" />
            <mxPoint x="500" y="240" as="targetPoint" />
          </mxGeometry>
        </mxCell>
        <mxCell id="R07nR9zVBasFDxz1jcbP-26" value="Use" style="endArrow=open;endSize=12;dashed=1;html=1;rounded=0;exitX=0.5;exitY=1;exitDx=0;exitDy=0;entryX=0.5;entryY=0;entryDx=0;entryDy=0;" parent="1" source="R07nR9zVBasFDxz1jcbP-9" target="R07nR9zVBasFDxz1jcbP-21" edge="1">
          <mxGeometry width="160" relative="1" as="geometry">
            <mxPoint x="500" y="380" as="sourcePoint" />
            <mxPoint x="490" y="390" as="targetPoint" />
          </mxGeometry>
        </mxCell>
        <mxCell id="R07nR9zVBasFDxz1jcbP-27" value="SyncModule" style="swimlane;fontStyle=1;align=center;verticalAlign=top;childLayout=stackLayout;horizontal=1;startSize=26;horizontalStack=0;resizeParent=1;resizeParentMax=0;resizeLast=0;collapsible=1;marginBottom=0;whiteSpace=wrap;html=1;" parent="1" vertex="1">
          <mxGeometry x="20" y="495" width="220" height="110" as="geometry" />
        </mxCell>
        <mxCell id="R07nR9zVBasFDxz1jcbP-28" value="+ field: type" style="text;strokeColor=none;fillColor=none;align=left;verticalAlign=top;spacingLeft=4;spacingRight=4;overflow=hidden;rotatable=0;points=[[0,0.5],[1,0.5]];portConstraint=eastwest;whiteSpace=wrap;html=1;" parent="R07nR9zVBasFDxz1jcbP-27" vertex="1">
          <mxGeometry y="26" width="220" height="26" as="geometry" />
        </mxCell>
        <mxCell id="R07nR9zVBasFDxz1jcbP-29" value="" style="line;strokeWidth=1;fillColor=none;align=left;verticalAlign=middle;spacingTop=-1;spacingLeft=3;spacingRight=3;rotatable=0;labelPosition=right;points=[];portConstraint=eastwest;strokeColor=inherit;" parent="R07nR9zVBasFDxz1jcbP-27" vertex="1">
          <mxGeometry y="52" width="220" height="8" as="geometry" />
        </mxCell>
        <mxCell id="R07nR9zVBasFDxz1jcbP-30" value="&lt;div&gt;+ syncSafes(): vec&amp;lt;Safe&amp;gt;&lt;br&gt;&lt;/div&gt;&lt;div&gt;+ syncCredentials(): Credentials&lt;br&gt;&lt;/div&gt;" style="text;strokeColor=none;fillColor=none;align=left;verticalAlign=top;spacingLeft=4;spacingRight=4;overflow=hidden;rotatable=0;points=[[0,0.5],[1,0.5]];portConstraint=eastwest;whiteSpace=wrap;html=1;" parent="R07nR9zVBasFDxz1jcbP-27" vertex="1">
          <mxGeometry y="60" width="220" height="50" as="geometry" />
        </mxCell>
        <mxCell id="R07nR9zVBasFDxz1jcbP-31" value="Use" style="endArrow=open;endSize=12;dashed=1;html=1;rounded=0;entryX=0.5;entryY=0;entryDx=0;entryDy=0;exitX=0.5;exitY=1;exitDx=0;exitDy=0;" parent="1" source="R07nR9zVBasFDxz1jcbP-13" target="R07nR9zVBasFDxz1jcbP-27" edge="1">
          <mxGeometry width="160" relative="1" as="geometry">
            <mxPoint x="130" y="480" as="sourcePoint" />
            <mxPoint x="500" y="320" as="targetPoint" />
          </mxGeometry>
        </mxCell>
        <mxCell id="R07nR9zVBasFDxz1jcbP-32" value="Use" style="endArrow=open;endSize=12;dashed=1;html=1;rounded=0;entryX=1;entryY=0;entryDx=0;entryDy=0;exitX=0;exitY=1;exitDx=0;exitDy=0;" parent="1" source="R07nR9zVBasFDxz1jcbP-9" target="R07nR9zVBasFDxz1jcbP-27" edge="1">
          <mxGeometry width="160" relative="1" as="geometry">
            <mxPoint x="410" y="370" as="sourcePoint" />
            <mxPoint x="500" y="320" as="targetPoint" />
          </mxGeometry>
        </mxCell>
      </root>
    </mxGraphModel>
  </diagram>
</mxfile>
